<svg xmlns="http://www.w3.org/2000/svg" viewBox="0 0 210 48" role="img">
<title>Urban Cats</title>
<g>
  <!-- Kitty icon (36x36) -->
  <g transform="translate(0,4)">
    <g fill="none" stroke-linecap="round" stroke-linejoin="round">
      <path d="M11.5 16.5 L15.2 6 L19 11.8 L25 10 L31 11.8 L34.8 6 L38.5 16.5 C39 19.8 37.8 24.2 25 29 C12.2 24.2 11 19.8 11.5 16.5 Z" fill="#292a26" stroke="#292a26" stroke-width="1.4"/>
      <path d="M15.3 9.2 L16.9 12.7 L13.8 14.2 Z" fill="#a4835d"/>
      <path d="M34.7 9.2 L36.2 14.2 L33.1 12.7 Z" fill="#a4835d"/>
      <path d="M14 16.2 C14 16.2 14.6 22.6 25 27.2 C35.4 22.6 36 16.2 36 16.2 C36 16.2 31.2 12 25 11 C18.8 12 14 16.2 14 16.2 Z" fill="#fffdf9"/>
      <circle cx="18.8" cy="18.2" r="1.65" fill="#292a26"/>
      <circle cx="31.2" cy="18.2" r="1.65" fill="#292a26"/>
      <circle cx="19.25" cy="17.7" r="0.38" fill="#fffdf9"/>
      <circle cx="31.65" cy="17.7" r="0.38" fill="#fffdf9"/>
      <path d="M24.2 21.2 L25.8 21.2 L25 22.5 Z" fill="#6f7955" stroke="#6f7955" stroke-width="0.6"/>
      <path d="M22 24.2 C22 24.2 23.6 25.5 25 25.5 C26.4 25.5 28 24.2 28 24.2" stroke="#292a26" stroke-width="0.95" fill="none"/>
      <path d="M25 22.7 L25 25.5" stroke="#292a26" stroke-width="0.8" fill="none"/>
      <g stroke="#292a26" stroke-width="0.75" opacity="0.95">
        <path d="M12.5 20 L7.2 18.7"/>
        <path d="M12.3 22.2 L6.6 22.2"/>
        <path d="M12.5 24.4 L7.3 25.7"/>
        <path d="M37.5 20 L42.8 18.7"/>
        <path d="M37.7 22.2 L43.4 22.2"/>
        <path d="M37.5 24.4 L42.7 25.7"/>
      </g>
      <path d="M17.8 26 C19.6 27.6 22.2 28.5 25 28.5 C27.8 28.5 30.4 27.6 32.2 26" stroke="#a4835d" stroke-width="0.9" fill="none" opacity="0.85"/>
    </g>
  </g>
  <!-- Wordmark -->
  <g font-family="Cormorant Garamond, Georgia, serif" fill="#292a26">
    <text x="50" y="22" font-size="15.8" font-weight="700" letter-spacing="0.06em">URBAN<tspan fill="#292a26"> CATS</tspan></text>
    <text x="50" y="34" font-family="Manrope, Inter, system-ui, sans-serif" font-size="6.6" font-weight="600" letter-spacing="0.16em" fill="#8a867c">Exceptional companions</text>
  </g>
</g>
</svg>
